<svg xmlns="http://www.w3.org/2000/svg" viewBox="0 0 196 142" fill="white">
<rect x="83" y="7" width="25" height="1"/><rect x="159" y="7" width="26" height="1"/><rect x="80" y="8" width="30" height="1"/><rect x="156" y="8" width="32" height="1"/><rect x="79" y="9" width="32" height="1"/><rect x="155" y="9" width="36" height="1"/><rect x="78" y="10" width="33" height="1"/><rect x="154" y="10" width="37" height="1"/><rect x="77" y="11" width="34" height="1"/><rect x="154" y="11" width="37" height="1"/><rect x="76" y="12" width="35" height="1"/><rect x="153" y="12" width="38" height="1"/><rect x="76" y="13" width="35" height="1"/><rect x="152" y="13" width="39" height="1"/><rect x="75" y="14" width="36" height="1"/><rect x="152" y="14" width="39" height="1"/><rect x="75" y="15" width="36" height="1"/><rect x="151" y="15" width="40" height="1"/><rect x="74" y="16" width="37" height="1"/><rect x="150" y="16" width="41" height="1"/><rect x="73" y="17" width="38" height="1"/><rect x="149" y="17" width="42" height="1"/><rect x="73" y="18" width="38" height="1"/><rect x="149" y="18" width="42" height="1"/><rect x="72" y="19" width="39" height="1"/><rect x="148" y="19" width="43" height="1"/><rect x="71" y="20" width="40" height="1"/><rect x="147" y="20" width="44" height="1"/><rect x="70" y="21" width="41" height="1"/><rect x="147" y="21" width="44" height="1"/><rect x="69" y="22" width="42" height="1"/><rect x="146" y="22" width="45" height="1"/><rect x="68" y="23" width="43" height="1"/><rect x="146" y="23" width="45" height="1"/><rect x="68" y="24" width="43" height="1"/><rect x="145" y="24" width="46" height="1"/><rect x="67" y="25" width="44" height="1"/><rect x="144" y="25" width="47" height="1"/><rect x="67" y="26" width="44" height="1"/><rect x="143" y="26" width="47" height="1"/><rect x="66" y="27" width="45" height="1"/><rect x="143" y="27" width="47" height="1"/><rect x="66" y="28" width="45" height="1"/><rect x="142" y="28" width="46" height="1"/><rect x="189" y="28" width="1" height="1"/><rect x="65" y="29" width="46" height="1"/><rect x="141" y="29" width="47" height="1"/><rect x="65" y="30" width="46" height="1"/><rect x="140" y="30" width="48" height="1"/><rect x="64" y="31" width="47" height="1"/><rect x="140" y="31" width="48" height="1"/><rect x="189" y="31" width="1" height="1"/><rect x="64" y="32" width="47" height="1"/><rect x="139" y="32" width="51" height="1"/><rect x="62" y="33" width="49" height="1"/><rect x="139" y="33" width="51" height="1"/><rect x="61" y="34" width="50" height="1"/><rect x="138" y="34" width="52" height="1"/><rect x="61" y="35" width="50" height="1"/><rect x="138" y="35" width="52" height="1"/><rect x="60" y="36" width="51" height="1"/><rect x="137" y="36" width="53" height="1"/><rect x="60" y="37" width="51" height="1"/><rect x="136" y="37" width="54" height="1"/><rect x="59" y="38" width="52" height="1"/><rect x="135" y="38" width="55" height="1"/><rect x="58" y="39" width="53" height="1"/><rect x="134" y="39" width="57" height="1"/><rect x="58" y="40" width="53" height="1"/><rect x="134" y="40" width="57" height="1"/><rect x="57" y="41" width="54" height="1"/><rect x="133" y="41" width="58" height="1"/><rect x="57" y="42" width="54" height="1"/><rect x="132" y="42" width="59" height="1"/><rect x="56" y="43" width="55" height="1"/><rect x="132" y="43" width="59" height="1"/><rect x="54" y="44" width="57" height="1"/><rect x="131" y="44" width="60" height="1"/><rect x="54" y="45" width="57" height="1"/><rect x="131" y="45" width="60" height="1"/><rect x="53" y="46" width="58" height="1"/><rect x="130" y="46" width="61" height="1"/><rect x="53" y="47" width="58" height="1"/><rect x="129" y="47" width="62" height="1"/><rect x="52" y="48" width="59" height="1"/><rect x="128" y="48" width="62" height="1"/><rect x="51" y="49" width="60" height="1"/><rect x="128" y="49" width="62" height="1"/><rect x="51" y="50" width="60" height="1"/><rect x="127" y="50" width="63" height="1"/><rect x="50" y="51" width="61" height="1"/><rect x="126" y="51" width="64" height="1"/><rect x="50" y="52" width="61" height="1"/><rect x="125" y="52" width="65" height="1"/><rect x="49" y="53" width="62" height="1"/><rect x="125" y="53" width="65" height="1"/><rect x="48" y="54" width="63" height="1"/><rect x="124" y="54" width="66" height="1"/><rect x="47" y="55" width="64" height="1"/><rect x="124" y="55" width="66" height="1"/><rect x="46" y="56" width="65" height="1"/><rect x="123" y="56" width="67" height="1"/><rect x="46" y="57" width="65" height="1"/><rect x="123" y="57" width="67" height="1"/><rect x="45" y="58" width="66" height="1"/><rect x="122" y="58" width="68" height="1"/><rect x="44" y="59" width="67" height="1"/><rect x="121" y="59" width="69" height="1"/><rect x="44" y="60" width="67" height="1"/><rect x="120" y="60" width="70" height="1"/><rect x="43" y="61" width="68" height="1"/><rect x="119" y="61" width="71" height="1"/><rect x="43" y="62" width="68" height="1"/><rect x="119" y="62" width="71" height="1"/><rect x="42" y="63" width="69" height="1"/><rect x="118" y="63" width="72" height="1"/><rect x="41" y="64" width="70" height="1"/><rect x="118" y="64" width="72" height="1"/><rect x="40" y="65" width="71" height="1"/><rect x="117" y="65" width="73" height="1"/><rect x="40" y="66" width="37" height="1"/><rect x="79" y="66" width="32" height="1"/><rect x="117" y="66" width="73" height="1"/><rect x="39" y="67" width="37" height="1"/><rect x="77" y="67" width="1" height="1"/><rect x="79" y="67" width="32" height="1"/><rect x="116" y="67" width="36" height="1"/><rect x="156" y="67" width="34" height="1"/><rect x="38" y="68" width="37" height="1"/><rect x="79" y="68" width="32" height="1"/><rect x="115" y="68" width="36" height="1"/><rect x="156" y="68" width="34" height="1"/><rect x="37" y="69" width="37" height="1"/><rect x="79" y="69" width="32" height="1"/><rect x="112" y="69" width="1" height="1"/><rect x="114" y="69" width="37" height="1"/><rect x="156" y="69" width="34" height="1"/><rect x="37" y="70" width="36" height="1"/><rect x="79" y="70" width="32" height="1"/><rect x="114" y="70" width="37" height="1"/><rect x="156" y="70" width="34" height="1"/><rect x="36" y="71" width="37" height="1"/><rect x="79" y="71" width="71" height="1"/><rect x="156" y="71" width="32" height="1"/><rect x="36" y="72" width="36" height="1"/><rect x="79" y="72" width="70" height="1"/><rect x="156" y="72" width="34" height="1"/><rect x="35" y="73" width="37" height="1"/><rect x="80" y="73" width="68" height="1"/><rect x="156" y="73" width="34" height="1"/><rect x="35" y="74" width="36" height="1"/><rect x="80" y="74" width="67" height="1"/><rect x="156" y="74" width="35" height="1"/><rect x="34" y="75" width="37" height="1"/><rect x="80" y="75" width="67" height="1"/><rect x="156" y="75" width="35" height="1"/><rect x="33" y="76" width="37" height="1"/><rect x="80" y="76" width="66" height="1"/><rect x="156" y="76" width="35" height="1"/><rect x="32" y="77" width="37" height="1"/><rect x="80" y="77" width="65" height="1"/><rect x="156" y="77" width="35" height="1"/><rect x="31" y="78" width="37" height="1"/><rect x="80" y="78" width="65" height="1"/><rect x="156" y="78" width="35" height="1"/><rect x="31" y="79" width="37" height="1"/><rect x="80" y="79" width="64" height="1"/><rect x="156" y="79" width="35" height="1"/><rect x="30" y="80" width="36" height="1"/><rect x="80" y="80" width="64" height="1"/><rect x="156" y="80" width="35" height="1"/><rect x="29" y="81" width="37" height="1"/><rect x="80" y="81" width="63" height="1"/><rect x="156" y="81" width="35" height="1"/><rect x="29" y="82" width="36" height="1"/><rect x="80" y="82" width="62" height="1"/><rect x="156" y="82" width="35" height="1"/><rect x="28" y="83" width="37" height="1"/><rect x="80" y="83" width="61" height="1"/><rect x="156" y="83" width="35" height="1"/><rect x="28" y="84" width="36" height="1"/><rect x="79" y="84" width="61" height="1"/><rect x="156" y="84" width="35" height="1"/><rect x="27" y="85" width="37" height="1"/><rect x="79" y="85" width="61" height="1"/><rect x="156" y="85" width="35" height="1"/><rect x="26" y="86" width="37" height="1"/><rect x="79" y="86" width="60" height="1"/><rect x="156" y="86" width="35" height="1"/><rect x="25" y="87" width="37" height="1"/><rect x="79" y="87" width="60" height="1"/><rect x="156" y="87" width="35" height="1"/><rect x="25" y="88" width="37" height="1"/><rect x="79" y="88" width="59" height="1"/><rect x="156" y="88" width="35" height="1"/><rect x="24" y="89" width="37" height="1"/><rect x="79" y="89" width="58" height="1"/><rect x="156" y="89" width="35" height="1"/><rect x="23" y="90" width="37" height="1"/><rect x="79" y="90" width="58" height="1"/><rect x="156" y="90" width="35" height="1"/><rect x="23" y="91" width="36" height="1"/><rect x="79" y="91" width="58" height="1"/><rect x="156" y="91" width="35" height="1"/><rect x="22" y="92" width="36" height="1"/><rect x="79" y="92" width="57" height="1"/><rect x="156" y="92" width="35" height="1"/><rect x="22" y="93" width="36" height="1"/><rect x="79" y="93" width="56" height="1"/><rect x="156" y="93" width="35" height="1"/><rect x="21" y="94" width="37" height="1"/><rect x="79" y="94" width="55" height="1"/><rect x="156" y="94" width="35" height="1"/><rect x="21" y="95" width="36" height="1"/><rect x="79" y="95" width="54" height="1"/><rect x="156" y="95" width="35" height="1"/><rect x="20" y="96" width="37" height="1"/><rect x="79" y="96" width="54" height="1"/><rect x="156" y="96" width="35" height="1"/><rect x="19" y="97" width="37" height="1"/><rect x="79" y="97" width="53" height="1"/><rect x="156" y="97" width="35" height="1"/><rect x="18" y="98" width="37" height="1"/><rect x="79" y="98" width="52" height="1"/><rect x="156" y="98" width="35" height="1"/><rect x="18" y="99" width="37" height="1"/><rect x="79" y="99" width="52" height="1"/><rect x="156" y="99" width="35" height="1"/><rect x="18" y="100" width="36" height="1"/><rect x="79" y="100" width="51" height="1"/><rect x="156" y="100" width="35" height="1"/><rect x="18" y="101" width="34" height="1"/><rect x="79" y="101" width="50" height="1"/><rect x="156" y="101" width="35" height="1"/><rect x="18" y="102" width="34" height="1"/><rect x="79" y="102" width="50" height="1"/><rect x="156" y="102" width="35" height="1"/><rect x="17" y="103" width="34" height="1"/><rect x="79" y="103" width="49" height="1"/><rect x="156" y="103" width="35" height="1"/><rect x="15" y="104" width="36" height="1"/><rect x="79" y="104" width="49" height="1"/><rect x="156" y="104" width="35" height="1"/><rect x="14" y="105" width="36" height="1"/><rect x="79" y="105" width="48" height="1"/><rect x="156" y="105" width="35" height="1"/><rect x="13" y="106" width="37" height="1"/><rect x="79" y="106" width="47" height="1"/><rect x="156" y="106" width="35" height="1"/><rect x="12" y="107" width="37" height="1"/><rect x="79" y="107" width="46" height="1"/><rect x="156" y="107" width="35" height="1"/><rect x="12" y="108" width="37" height="1"/><rect x="79" y="108" width="46" height="1"/><rect x="156" y="108" width="35" height="1"/><rect x="11" y="109" width="37" height="1"/><rect x="79" y="109" width="45" height="1"/><rect x="156" y="109" width="35" height="1"/><rect x="10" y="110" width="37" height="1"/><rect x="79" y="110" width="44" height="1"/><rect x="156" y="110" width="35" height="1"/><rect x="9" y="111" width="37" height="1"/><rect x="79" y="111" width="43" height="1"/><rect x="156" y="111" width="35" height="1"/><rect x="8" y="112" width="37" height="1"/><rect x="79" y="112" width="43" height="1"/><rect x="156" y="112" width="35" height="1"/><rect x="8" y="113" width="36" height="1"/><rect x="79" y="113" width="42" height="1"/><rect x="156" y="113" width="35" height="1"/><rect x="7" y="114" width="37" height="1"/><rect x="79" y="114" width="42" height="1"/><rect x="156" y="114" width="35" height="1"/><rect x="7" y="115" width="36" height="1"/><rect x="79" y="115" width="41" height="1"/><rect x="156" y="115" width="35" height="1"/><rect x="6" y="116" width="37" height="1"/><rect x="79" y="116" width="40" height="1"/><rect x="156" y="116" width="35" height="1"/><rect x="5" y="117" width="37" height="1"/><rect x="79" y="117" width="40" height="1"/><rect x="156" y="117" width="35" height="1"/><rect x="5" y="118" width="37" height="1"/><rect x="79" y="118" width="39" height="1"/><rect x="156" y="118" width="35" height="1"/><rect x="0" y="119" width="3" height="1"/><rect x="4" y="119" width="37" height="1"/><rect x="79" y="119" width="38" height="1"/><rect x="156" y="119" width="40" height="1"/><rect x="0" y="120" width="41" height="1"/><rect x="79" y="120" width="37" height="1"/><rect x="156" y="120" width="40" height="1"/><rect x="0" y="121" width="40" height="1"/><rect x="79" y="121" width="36" height="1"/><rect x="156" y="121" width="40" height="1"/><rect x="0" y="122" width="38" height="1"/><rect x="79" y="122" width="36" height="1"/><rect x="156" y="122" width="40" height="1"/><rect x="0" y="123" width="38" height="1"/><rect x="79" y="123" width="35" height="1"/><rect x="156" y="123" width="40" height="1"/><rect x="0" y="124" width="37" height="1"/><rect x="79" y="124" width="35" height="1"/><rect x="156" y="124" width="40" height="1"/><rect x="0" y="125" width="37" height="1"/><rect x="79" y="125" width="34" height="1"/><rect x="156" y="125" width="40" height="1"/><rect x="0" y="126" width="36" height="1"/><rect x="79" y="126" width="34" height="1"/><rect x="156" y="126" width="40" height="1"/><rect x="0" y="127" width="36" height="1"/><rect x="79" y="127" width="33" height="1"/><rect x="156" y="127" width="40" height="1"/><rect x="0" y="128" width="35" height="1"/><rect x="79" y="128" width="32" height="1"/><rect x="156" y="128" width="40" height="1"/><rect x="0" y="129" width="34" height="1"/><rect x="79" y="129" width="31" height="1"/><rect x="156" y="129" width="40" height="1"/><rect x="0" y="130" width="34" height="1"/><rect x="79" y="130" width="30" height="1"/><rect x="156" y="130" width="40" height="1"/><rect x="0" y="131" width="33" height="1"/><rect x="79" y="131" width="30" height="1"/><rect x="156" y="131" width="40" height="1"/><rect x="0" y="132" width="32" height="1"/><rect x="79" y="132" width="29" height="1"/><rect x="156" y="132" width="40" height="1"/><rect x="0" y="133" width="30" height="1"/><rect x="79" y="133" width="28" height="1"/><rect x="156" y="133" width="40" height="1"/><rect x="0" y="134" width="29" height="1"/><rect x="79" y="134" width="28" height="1"/><rect x="156" y="134" width="40" height="1"/><rect x="0" y="135" width="27" height="1"/><rect x="79" y="135" width="26" height="1"/><rect x="157" y="135" width="39" height="1"/><rect x="0" y="136" width="14" height="1"/><rect x="80" y="136" width="7" height="1"/><rect x="158" y="136" width="38" height="1"/><rect x="122" y="141" width="22" height="1"/><rect x="172" y="141" width="15" height="1"/>
</svg>