<svg xmlns="http://www.w3.org/2000/svg" viewBox="0 0 920 440" role="img" aria-labelledby="title desc">
  <title id="title">Statyczna mapa dojazdu do MLYNfit</title>
  <desc id="desc">Mapa pokazuje lokalizacje MLYNfit przy ulicy Mlynskiej 1A w Garbowie, 10 minut od Lublina.</desc>
  <defs>
    <linearGradient id="bg" x1="0" y1="0" x2="1" y2="1">
      <stop offset="0" stop-color="#141917"/>
      <stop offset="0.54" stop-color="#222620"/>
      <stop offset="1" stop-color="#111412"/>
    </linearGradient>
    <linearGradient id="roadMain" x1="0" y1="0" x2="1" y2="0">
      <stop offset="0" stop-color="#f26722"/>
      <stop offset="1" stop-color="#ff9552"/>
    </linearGradient>
    <filter id="shadow" x="-20%" y="-20%" width="140%" height="140%">
      <feDropShadow dx="0" dy="12" stdDeviation="14" flood-color="#000000" flood-opacity="0.5"/>
    </filter>
    <filter id="glow" x="-50%" y="-50%" width="200%" height="200%">
      <feDropShadow      <feDropShadow      <feDropShadow      <feDropShadow   opacity="0.6"/>
    </filter>
    <pattern id="grid" width="52" height="52" patternUnits="userSpaceOnUse">
      <path d="M 52 0 L 0 0 0 52" fill="none" stroke="#ffffff" stroke-opacity="0.025" stroke-width="1"/>
    </pattern>
    <marker id="arrowhead" markerWidth="10" markerHeight="7" refX="10" refY="3.5" orient="auto">
      <polygon points="0 0, 10 3.5, 0 7" fill="#f26722"/>
    </marker>
  </defs>

  <rect width="920" height="440" fill="url(#bg)"/>
  <rect width="920" height="440" fill="url(#grid)"/>

  <!-- Main route S17 -->
  <path d="M-20 220 C120 180 240 170 360 150 C520 140 640 150 760 190 C820 210 880 220 940 230" fill="none" stroke="#ffffff" stroke-opacity="0.08" stroke-width="70" stroke-linecap="round"/>
  <path d="M-20 220 C120 180 240 170 360 150 C520 140 640 150 760 190 C820 210 880 220 940 230" fill="none" stroke="#ffffff" stroke-opacity="0.18" stroke-width="34" stroke-linecap="round"/>
  <path d="M-20 220 C120 180 240 170 360 150 C520 140 640 150 760 190 C820 210 880 220 940 230" fill="none" stroke="url(#roadMain)" stroke-width="12" stroke-linecap="round"/>

  <!-- Side roads -->
  <path d="M128 102 C220 132 284 150 360 206 C438 264 515 296 650 318" fill="none" stroke="#ffffff" stroke-opacity="0.12" stroke-width="18" stroke-linecap="round"/>
  <path d="M128 102 C220 132 284 150 360 206 C438 264 515 296 650 318" fill="none" stroke="#333a34" stroke-width="6" stroke-linecap="round"/>

  <path d="M544 50 C526 112 494 163 430 224 C385 268 347 322 310 418" fill="none" stroke="#ffffff" stroke-opacity="0.10" stroke-width="16" stroke-linecap="round"/>
  <path d="M544 50 C526 112 494 163 430 224 C385 268 347 322 310 418" fill="none" stroke="#2c332e" stroke-width="5" stroke-linecap="round"/>

  <!-- Dashboard style labels -->
  <g opacity="0.5">
    <rect x="72" y="64" width="116" height="48" rx="8" fill="#242a25" stroke="#ffffff" stroke-opacity="0.06"/>
    <rect x="206" y="70" width="84" height="40"    <rect x="206" y="70" width="84" height="40"    <rect x="206" y="70" width="84" height="40"    <rect x="206" y="70" width="84" height="40"    <rect x="206" y="70" width=""/>    <rect x="206"" y="332" width="78" height="36" rx="8" fill="#1b201d" stroke="#ffffff" stroke-opacity="0.06"/>
  </g>

  <!-- Route direction arrow -->
  <g opacity="0.6">
    <line x1="340" y1="156" x2="500" y2="146" stroke="#f26722" stroke-width="3" stroke-dasharray="8,6" marker-end="url(#arrowhead)"/>
    <text x="370" y="1    <text x="370" y="1    <text x="370" y="1    <text x="370" y="1    <text x="370" y="1    <text x="370" y="1    <text x="370" y="1    <text x="370" y="1    <tex#glow)">
    <circle cx="560" cy="190" r="24" fill="#f26722"/>
    <circle cx="560" cy="190" r="10" fill="#fff"/>
  </g>

  <!-- Card -->
  <g filter="url(#shadow)">
    <rect x="420" y="110" width="260" height="110" rx="14" fill="#f8efe8"/>
    <path d="M542 220 L566 220 L554 242 Z" fill="#f8efe8"/>
    <text x="450" y="142" fill="#111412" font-family="Arial, Helvetica, sans-serif" font-size="13" font-weight="700" letter-spacing="1.2">TU TRENUJESZ</text>
    <text x="450" y="174" fill="#111412" font-family="Arial, Helvetica, sans-serif" font-size="32" font-weight="800">MLYN<tspan fill="#f26722">fit</tspan></text>
    <text x="450" y="198" fill=    <tex" font-family="Arial, Hel    <text xs-serif" font-size="14">ul. Młyńska 1A, Garbów</text>
  </g>

  <!-- City labels -->
  <g font-family="Arial, Helvetica, sans-serif">
    <t    <t    <t    <t    <t    <t    <t    <t    <t    <t    <t    <t    <t    <t    <t    <t    <text>
    <text x="548" y="158" fill="#ffffff" fill-opacity="0.9" font-size="20" font-weight="800">Garbów</text>
    <text x="472" y="204" fill="#ffffff" fill-opacity="0.5" font-size="13">ul. Młyńska</text>
               Badge -->
  <g transform="tran  <g transform="tran  <g transform="tran  <g transform="tran  <g tra00" fill  <g transform="tran  <g transform="tran  <g transfor>
    <    <    <    <    <    <    <    <    <    <    <    <    <    <    <    <    <    <    <    <    <    <    <    <    <    <    <    <    <    <    <    < ="14" font-weight="700">10 min od Lublina</text>
  </g>
</svg>
